<svg width="48" height="48" viewBox="0 0 48 48" fill="none" xmlns="http://www.w3.org/2000/svg">
<rect width="48" height="48" rx="24" fill="#1A3C96"/>
<path fill-rule="evenodd" clip-rule="evenodd" d="M22.56 11.824C22.7067 11.5722 22.9169 11.3633 23.1696 11.2181C23.4222 11.0729 23.7086 10.9965 24 10.9965C24.2914 10.9965 24.5777 11.0729 24.8304 11.2181C25.0831 11.3633 25.2933 11.5722 25.44 11.824L29.1666 18.2213L36.404 19.7893C36.6887 19.8512 36.9522 19.9866 37.1682 20.182C37.3842 20.3775 37.5453 20.6261 37.6353 20.9032C37.7252 21.1803 37.741 21.4761 37.681 21.7612C37.621 22.0463 37.4873 22.3107 37.2933 22.528L32.36 28.0493L33.1066 35.416C33.1361 35.7061 33.0889 35.9988 32.9699 36.2649C32.8508 36.5311 32.664 36.7613 32.4282 36.9327C32.1923 37.1041 31.9156 37.2106 31.6256 37.2416C31.3357 37.2726 31.0428 37.227 30.776 37.1093L24 34.1226L17.224 37.1093C16.9572 37.227 16.6642 37.2726 16.3743 37.2416C16.0844 37.2106 15.8077 37.1041 15.5718 36.9327C15.3359 36.7613 15.1491 36.5311 15.0301 36.2649C14.911 35.9988 14.8639 35.7061 14.8933 35.416L15.64 28.0493L10.7066 22.5293C10.5123 22.312 10.3783 22.0475 10.3181 21.7623C10.2579 21.477 10.2736 21.1809 10.3636 20.9036C10.4536 20.6263 10.6148 20.3775 10.8311 20.182C11.0473 19.9864 11.3111 19.851 11.596 19.7893L18.8333 18.2213L22.56 11.824ZM24 14.6493L20.916 19.9453C20.7994 20.1452 20.6424 20.3186 20.4551 20.4545C20.2678 20.5904 20.0542 20.6858 19.828 20.7346L13.8386 22.032L17.9213 26.6013C18.2333 26.9506 18.384 27.4146 18.3373 27.88L17.72 33.9773L23.328 31.5053C23.5397 31.412 23.7686 31.3638 24 31.3638C24.2314 31.3638 24.4602 31.412 24.672 31.5053L30.28 33.9773L29.6626 27.88C29.6392 27.6497 29.664 27.4171 29.7354 27.197C29.8067 26.9768 29.9232 26.774 30.0773 26.6013L34.1613 22.032L28.172 20.7346C27.9458 20.6858 27.7322 20.5904 27.5449 20.4545C27.3576 20.3186 27.2006 20.1452 27.084 19.9453L24 14.6493Z" fill="white"/>
</svg>
