<svg width="37" height="37" viewBox="0 0 37 37" fill="none" xmlns="http://www.w3.org/2000/svg">
<g id="clarity:arrow-line">
<path id="Vector" d="M16.0436 8.57166L6.16666 18.5L16.0436 28.4283C16.1328 28.5455 16.2461 28.6421 16.3759 28.7116C16.5057 28.7811 16.6489 28.822 16.7958 28.8313C16.9428 28.8407 17.09 28.8184 17.2276 28.7659C17.3652 28.7135 17.4898 28.632 17.5932 28.5272C17.6966 28.4223 17.7762 28.2965 17.8267 28.1582C17.8772 28.0199 17.8974 27.8724 17.8859 27.7256C17.8745 27.5788 17.8316 27.4362 17.7602 27.3074C17.6888 27.1786 17.5906 27.0667 17.4722 26.9792L10.0825 19.5278L29.7439 19.5278C30.0165 19.5278 30.2779 19.4195 30.4706 19.2267C30.6634 19.034 30.7717 18.7726 30.7717 18.5C30.7717 18.2274 30.6634 17.966 30.4706 17.7732C30.2779 17.5805 30.0165 17.4722 29.7439 17.4722L10.0825 17.4722L17.4722 10.0208C17.6644 9.82729 17.7718 9.56534 17.7708 9.29261C17.7699 9.01987 17.6606 8.75869 17.4671 8.56652C17.2735 8.37435 17.0116 8.26693 16.7389 8.26789C16.4661 8.26886 16.2049 8.37813 16.0128 8.57166L16.0436 8.57166Z" fill="white"/>
</g>
</svg>
