<svg width="24" height="22" viewBox="0 0 24 22" fill="none" xmlns="http://www.w3.org/2000/svg">
<path d="M12 22L10.26 20.4414C8.24 18.6231 6.57 17.0545 5.25 15.7357C3.93 14.4169 2.88 13.2328 2.1 12.1833C1.32 11.1339 0.7752 10.17 0.4656 9.29155C0.156 8.41315 0.0008 7.51397 0 6.594C0 4.71571 0.63 3.14714 1.89 1.88828C3.15 0.629428 4.72 0 6.6 0C7.64 0 8.63 0.2198 9.57 0.6594C10.51 1.099 11.32 1.71844 12 2.51771C12.68 1.71844 13.49 1.099 14.43 0.6594C15.37 0.2198 16.36 0 17.4 0C19.28 0 20.85 0.629428 22.11 1.88828C23.37 3.14714 24 4.71571 24 6.594C24 7.51317 23.8452 8.41235 23.5356 9.29155C23.226 10.1708 22.6808 11.1347 21.9 12.1833C21.1192 13.232 20.0692 14.4161 18.75 15.7357C17.4308 17.0553 15.7608 18.6239 13.74 20.4414L12 22ZM12 18.7629C13.92 17.0445 15.5 15.571 16.74 14.3426C17.98 13.1141 18.96 12.045 19.68 11.1355C20.4 10.2259 20.9 9.41624 21.18 8.70648C21.46 7.99673 21.6 7.29257 21.6 6.594C21.6 5.39509 21.2 4.396 20.4 3.59673C19.6 2.79746 18.6 2.39782 17.4 2.39782C16.46 2.39782 15.59 2.66238 14.79 3.1915C13.99 3.72062 13.44 4.3952 13.14 5.21526H10.86C10.56 4.396 10.01 3.72182 9.21 3.1927C8.41 2.66358 7.54 2.39862 6.6 2.39782C5.4 2.39782 4.4 2.79746 3.6 3.59673C2.8 4.396 2.4 5.39509 2.4 6.594C2.4 7.29337 2.54 7.99793 2.82 8.70768C3.1 9.41744 3.6 10.2267 4.32 11.1355C5.04 12.0442 6.02 13.1133 7.26 14.3426C8.5 15.5718 10.08 17.0453 12 18.7629Z" fill="white"/>
</svg>
