<svg width="48" height="48" viewBox="0 0 48 48" fill="none" xmlns="http://www.w3.org/2000/svg">
<rect width="48" height="48" rx="24" fill="#1A3C96"/>
<path d="M24 35L22.26 33.4414C20.24 31.6231 18.57 30.0545 17.25 28.7357C15.93 27.4169 14.88 26.2328 14.1 25.1833C13.32 24.1339 12.7752 23.17 12.4656 22.2916C12.156 21.4132 12.0008 20.514 12 19.594C12 17.7157 12.63 16.1471 13.89 14.8883C15.15 13.6294 16.72 13 18.6 13C19.64 13 20.63 13.2198 21.57 13.6594C22.51 14.099 23.32 14.7184 24 15.5177C24.68 14.7184 25.49 14.099 26.43 13.6594C27.37 13.2198 28.36 13 29.4 13C31.28 13 32.85 13.6294 34.11 14.8883C35.37 16.1471 36 17.7157 36 19.594C36 20.5132 35.8452 21.4124 35.5356 22.2916C35.226 23.1708 34.6808 24.1347 33.9 25.1833C33.1192 26.232 32.0692 27.4161 30.75 28.7357C29.4308 30.0553 27.7608 31.6239 25.74 33.4414L24 35ZM24 31.7629C25.92 30.0445 27.5 28.571 28.74 27.3426C29.98 26.1141 30.96 25.045 31.68 24.1355C32.4 23.2259 32.9 22.4162 33.18 21.7065C33.46 20.9967 33.6 20.2926 33.6 19.594C33.6 18.3951 33.2 17.396 32.4 16.5967C31.6 15.7975 30.6 15.3978 29.4 15.3978C28.46 15.3978 27.59 15.6624 26.79 16.1915C25.99 16.7206 25.44 17.3952 25.14 18.2153H22.86C22.56 17.396 22.01 16.7218 21.21 16.1927C20.41 15.6636 19.54 15.3986 18.6 15.3978C17.4 15.3978 16.4 15.7975 15.6 16.5967C14.8 17.396 14.4 18.3951 14.4 19.594C14.4 20.2934 14.54 20.9979 14.82 21.7077C15.1 22.4174 15.6 23.2267 16.32 24.1355C17.04 25.0442 18.02 26.1133 19.26 27.3426C20.5 28.5718 22.08 30.0453 24 31.7629Z" fill="white"/>
</svg>
