<svg width="48" height="48" viewBox="0 0 48 48" fill="none" xmlns="http://www.w3.org/2000/svg">
<rect width="48" height="48" rx="24" fill="#1A3C96"/>
<path d="M30.75 36C29.75 36 28.9 35.65 28.2 34.95C27.5 34.25 27.15 33.4 27.15 32.4C27.15 32.28 27.18 32 27.24 31.56L18.81 26.64C18.49 26.94 18.12 27.1752 17.7 27.3456C17.28 27.516 16.83 27.6008 16.35 27.6C15.35 27.6 14.5 27.25 13.8 26.55C13.1 25.85 12.75 25 12.75 24C12.75 23 13.1 22.15 13.8 21.45C14.5 20.75 15.35 20.4 16.35 20.4C16.83 20.4 17.28 20.4852 17.7 20.6556C18.12 20.826 18.49 21.0608 18.81 21.36L27.24 16.44C27.2 16.3 27.1752 16.1652 27.1656 16.0356C27.156 15.906 27.1508 15.7608 27.15 15.6C27.15 14.6 27.5 13.75 28.2 13.05C28.9 12.35 29.75 12 30.75 12C31.75 12 32.6 12.35 33.3 13.05C34 13.75 34.35 14.6 34.35 15.6C34.35 16.6 34 17.45 33.3 18.15C32.6 18.85 31.75 19.2 30.75 19.2C30.27 19.2 29.82 19.1148 29.4 18.9444C28.98 18.774 28.61 18.5392 28.29 18.24L19.86 23.16C19.9 23.3 19.9252 23.4352 19.9356 23.5656C19.946 23.696 19.9508 23.8408 19.95 24C19.9492 24.1592 19.9444 24.3044 19.9356 24.4356C19.9268 24.5668 19.9016 24.7016 19.86 24.84L28.29 29.76C28.61 29.46 28.98 29.2252 29.4 29.0556C29.82 28.886 30.27 28.8008 30.75 28.8C31.75 28.8 32.6 29.15 33.3 29.85C34 30.55 34.35 31.4 34.35 32.4C34.35 33.4 34 34.25 33.3 34.95C32.6 35.65 31.75 36 30.75 36Z" fill="white"/>
</svg>
