<svg width="156" height="125" viewBox="0 0 156 125" fill="none" xmlns="http://www.w3.org/2000/svg">
<g clip-path="url(#clip0_631_219)">
<path d="M79.8443 52.6383C119.799 38.808 98.1382 5.00094 79.8443 5.00029C61.5505 4.99964 44.5 5.00029 44.5 5.00029V74.1523H66.0139V28.051H90.6013M109.042 44.9545C115.189 60.3216 109.042 74.152 76.7709 74.1523" stroke="url(#paint0_linear_631_219)" stroke-width="9.375" stroke-linecap="round" stroke-linejoin="round"/>
</g>
<g clip-path="url(#clip1_631_219)">
<path d="M0.5 121.952V104.497H7.38637C8.71023 104.497 9.83812 104.75 10.7699 105.256C11.7017 105.756 12.4119 106.452 12.9006 107.344C13.3949 108.23 13.642 109.253 13.642 110.412C13.642 111.571 13.392 112.594 12.892 113.48C12.392 114.367 11.6676 115.057 10.7187 115.551C9.77562 116.045 8.63353 116.293 7.29262 116.293H2.90341V113.335H6.69603C7.40625 113.335 7.99148 113.213 8.45171 112.969C8.91762 112.719 9.26421 112.375 9.49148 111.938C9.72442 111.494 9.84092 110.986 9.84092 110.412C9.84092 109.832 9.72442 109.327 9.49148 108.895C9.26421 108.457 8.91762 108.119 8.45171 107.881C7.9858 107.636 7.39489 107.514 6.67898 107.514H4.19034V121.952H0.5ZM19.3523 122.199C18.517 122.199 17.7727 122.054 17.1193 121.764C16.4659 121.469 15.9488 121.034 15.5682 120.46C15.1932 119.881 15.0057 119.159 15.0057 118.296C15.0057 117.568 15.1392 116.957 15.4062 116.463C15.6733 115.969 16.0369 115.571 16.4971 115.27C16.9574 114.969 17.4801 114.742 18.0653 114.588C18.6562 114.435 19.2756 114.327 19.9233 114.264C20.6846 114.185 21.2983 114.111 21.7642 114.043C22.2301 113.969 22.5682 113.861 22.7784 113.719C22.9886 113.577 23.0937 113.367 23.0937 113.088V113.037C23.0937 112.497 22.9233 112.08 22.5824 111.784C22.2471 111.489 21.7699 111.341 21.1506 111.341C20.4971 111.341 19.9773 111.486 19.5909 111.776C19.2045 112.06 18.9488 112.418 18.8238 112.849L15.4659 112.577C15.6363 111.781 15.9716 111.094 16.4716 110.514C16.9716 109.929 17.6165 109.48 18.4062 109.168C19.2017 108.849 20.1221 108.69 21.1676 108.69C21.8949 108.69 22.5909 108.776 23.2557 108.946C23.9261 109.116 24.5199 109.381 25.0369 109.739C25.5596 110.097 25.9716 110.557 26.2727 111.119C26.5738 111.676 26.7244 112.344 26.7244 113.122V121.952H23.2812V120.136H23.179C22.9687 120.546 22.6875 120.906 22.3352 121.219C21.9829 121.526 21.5596 121.767 21.0653 121.943C20.571 122.114 20 122.199 19.3523 122.199ZM20.392 119.693C20.9261 119.693 21.3977 119.588 21.8068 119.378C22.2159 119.162 22.5369 118.872 22.7699 118.509C23.0028 118.145 23.1193 117.733 23.1193 117.273V115.884C23.0057 115.957 22.8494 116.026 22.6506 116.088C22.4574 116.145 22.2386 116.199 21.9943 116.25C21.75 116.295 21.5057 116.338 21.2613 116.378C21.017 116.412 20.7954 116.443 20.5966 116.472C20.1704 116.534 19.7983 116.634 19.4801 116.77C19.1619 116.906 18.9148 117.091 18.7386 117.324C18.5625 117.551 18.4744 117.835 18.4744 118.176C18.4744 118.671 18.6534 119.048 19.0113 119.31C19.375 119.565 19.8352 119.693 20.392 119.693ZM40.4332 112.594L37.1094 112.798C37.0525 112.514 36.9304 112.259 36.7429 112.031C36.5554 111.798 36.3082 111.614 36.0014 111.477C35.7003 111.335 35.3395 111.264 34.919 111.264C34.3565 111.264 33.8821 111.384 33.4957 111.622C33.1094 111.855 32.9162 112.168 32.9162 112.56C32.9162 112.872 33.0412 113.136 33.2912 113.352C33.5412 113.568 33.9702 113.742 34.5781 113.872L36.9474 114.349C38.2202 114.611 39.169 115.031 39.794 115.611C40.419 116.19 40.7315 116.952 40.7315 117.895C40.7315 118.753 40.4787 119.506 39.973 120.153C39.473 120.801 38.7855 121.307 37.9105 121.671C37.0412 122.028 36.0383 122.207 34.902 122.207C33.169 122.207 31.7883 121.847 30.7599 121.125C29.7372 120.398 29.1378 119.409 28.9616 118.159L32.5327 117.972C32.6406 118.5 32.902 118.903 33.3167 119.182C33.7315 119.455 34.2628 119.591 34.9105 119.591C35.5469 119.591 36.0582 119.469 36.4446 119.224C36.8366 118.974 37.0355 118.653 37.0412 118.261C37.0355 117.932 36.8963 117.662 36.6236 117.452C36.3508 117.236 35.9304 117.071 35.3622 116.957L33.0952 116.506C31.8167 116.25 30.865 115.807 30.24 115.176C29.6207 114.545 29.3111 113.742 29.3111 112.764C29.3111 111.923 29.5383 111.199 29.9929 110.591C30.4531 109.983 31.098 109.514 31.9275 109.185C32.7628 108.855 33.74 108.69 34.8594 108.69C36.5128 108.69 37.8139 109.04 38.7628 109.739C39.7173 110.438 40.2741 111.389 40.4332 112.594ZM53.9098 112.594L50.5859 112.798C50.5291 112.514 50.4069 112.259 50.2194 112.031C50.0319 111.798 49.7848 111.614 49.478 111.477C49.1768 111.335 48.816 111.264 48.3956 111.264C47.8331 111.264 47.3586 111.384 46.9723 111.622C46.5859 111.855 46.3927 112.168 46.3927 112.56C46.3927 112.872 46.5177 113.136 46.7677 113.352C47.0177 113.568 47.4467 113.742 48.0547 113.872L50.424 114.349C51.6967 114.611 52.6456 115.031 53.2706 115.611C53.8956 116.19 54.2081 116.952 54.2081 117.895C54.2081 118.753 53.9552 119.506 53.4496 120.153C52.9496 120.801 52.2621 121.307 51.3871 121.671C50.5177 122.028 49.5149 122.207 48.3785 122.207C46.6456 122.207 45.2649 121.847 44.2365 121.125C43.2138 120.398 42.6143 119.409 42.4382 118.159L46.0092 117.972C46.1172 118.5 46.3785 118.903 46.7933 119.182C47.2081 119.455 47.7393 119.591 48.3871 119.591C49.0234 119.591 49.5348 119.469 49.9211 119.224C50.3132 118.974 50.5121 118.653 50.5177 118.261C50.5121 117.932 50.3729 117.662 50.1001 117.452C49.8274 117.236 49.4069 117.071 48.8388 116.957L46.5717 116.506C45.2933 116.25 44.3416 115.807 43.7166 115.176C43.0973 114.545 42.7876 113.742 42.7876 112.764C42.7876 111.923 43.0149 111.199 43.4694 110.591C43.9297 109.983 44.5746 109.514 45.4041 109.185C46.2393 108.855 47.2166 108.69 48.3359 108.69C49.9893 108.69 51.2905 109.04 52.2393 109.739C53.1939 110.438 53.7507 111.389 53.9098 112.594ZM56.4943 121.952V108.861H60.125V121.952H56.4943ZM58.3182 107.173C57.7784 107.173 57.3153 106.994 56.929 106.636C56.5483 106.273 56.3579 105.838 56.3579 105.332C56.3579 104.832 56.5483 104.403 56.929 104.045C57.3153 103.682 57.7784 103.5 58.3182 103.5C58.8579 103.5 59.3182 103.682 59.6988 104.045C60.0852 104.403 60.2784 104.832 60.2784 105.332C60.2784 105.838 60.0852 106.273 59.6988 106.636C59.3182 106.994 58.8579 107.173 58.3182 107.173ZM68.9481 122.207C67.6243 122.207 66.4794 121.926 65.5135 121.364C64.5533 120.795 63.8118 120.006 63.289 118.994C62.7663 117.977 62.505 116.798 62.505 115.457C62.505 114.105 62.7663 112.923 63.289 111.912C63.8118 110.895 64.5533 110.105 65.5135 109.543C66.4794 108.974 67.6243 108.69 68.9481 108.69C70.272 108.69 71.414 108.974 72.3743 109.543C73.3402 110.105 74.0845 110.895 74.6072 111.912C75.13 112.923 75.3913 114.105 75.3913 115.457C75.3913 116.798 75.13 117.977 74.6072 118.994C74.0845 120.006 73.3402 120.795 72.3743 121.364C71.414 121.926 70.272 122.207 68.9481 122.207ZM68.9652 119.395C69.5675 119.395 70.0703 119.224 70.4737 118.884C70.8771 118.537 71.1811 118.065 71.3856 117.469C71.5959 116.872 71.701 116.193 71.701 115.432C71.701 114.671 71.5959 113.992 71.3856 113.395C71.1811 112.798 70.8771 112.327 70.4737 111.98C70.0703 111.634 69.5675 111.46 68.9652 111.46C68.3572 111.46 67.8459 111.634 67.4311 111.98C67.022 112.327 66.7123 112.798 66.5021 113.395C66.2976 113.992 66.1953 114.671 66.1953 115.432C66.1953 116.193 66.2976 116.872 66.5021 117.469C66.7123 118.065 67.022 118.537 67.4311 118.884C67.8459 119.224 68.3572 119.395 68.9652 119.395ZM81.3828 114.384V121.952H77.7521V108.861H81.2123V111.17H81.3658C81.6555 110.409 82.1413 109.807 82.8231 109.364C83.505 108.915 84.3317 108.69 85.3032 108.69C86.2123 108.69 87.005 108.889 87.6811 109.287C88.3572 109.685 88.8828 110.253 89.2578 110.991C89.6328 111.724 89.8203 112.599 89.8203 113.617V121.952H86.1896V114.264C86.1953 113.463 85.9908 112.838 85.576 112.389C85.1612 111.935 84.5902 111.707 83.8629 111.707C83.3743 111.707 82.9425 111.813 82.5675 112.023C82.1981 112.233 81.9084 112.54 81.6981 112.943C81.4936 113.341 81.3885 113.821 81.3828 114.384ZM104.492 121.952H98.3047V104.497H104.543C106.299 104.497 107.81 104.847 109.077 105.545C110.344 106.239 111.319 107.236 112.001 108.537C112.688 109.838 113.032 111.395 113.032 113.207C113.032 115.026 112.688 116.588 112.001 117.895C111.319 119.202 110.339 120.205 109.06 120.903C107.788 121.602 106.265 121.952 104.492 121.952ZM101.995 118.79H104.339C105.43 118.79 106.347 118.597 107.092 118.21C107.842 117.818 108.404 117.213 108.779 116.395C109.16 115.571 109.35 114.509 109.35 113.207C109.35 111.918 109.16 110.864 108.779 110.045C108.404 109.227 107.844 108.625 107.1 108.239C106.356 107.852 105.438 107.659 104.347 107.659H101.995V118.79ZM119.43 122.199C118.595 122.199 117.851 122.054 117.197 121.764C116.544 121.469 116.027 121.034 115.646 120.46C115.271 119.881 115.084 119.159 115.084 118.296C115.084 117.568 115.217 116.957 115.484 116.463C115.751 115.969 116.115 115.571 116.575 115.27C117.035 114.969 117.558 114.742 118.143 114.588C118.734 114.435 119.354 114.327 120.001 114.264C120.763 114.185 121.376 114.111 121.842 114.043C122.308 113.969 122.646 113.861 122.857 113.719C123.067 113.577 123.172 113.367 123.172 113.088V113.037C123.172 112.497 123.001 112.08 122.66 111.784C122.325 111.489 121.848 111.341 121.229 111.341C120.575 111.341 120.055 111.486 119.669 111.776C119.283 112.06 119.027 112.418 118.902 112.849L115.544 112.577C115.714 111.781 116.05 111.094 116.55 110.514C117.05 109.929 117.695 109.48 118.484 109.168C119.28 108.849 120.2 108.69 121.246 108.69C121.973 108.69 122.669 108.776 123.334 108.946C124.004 109.116 124.598 109.381 125.115 109.739C125.638 110.097 126.05 110.557 126.351 111.119C126.652 111.676 126.803 112.344 126.803 113.122V121.952H123.359V120.136H123.257C123.047 120.546 122.766 120.906 122.413 121.219C122.061 121.526 121.638 121.767 121.143 121.943C120.649 122.114 120.078 122.199 119.43 122.199ZM120.47 119.693C121.004 119.693 121.476 119.588 121.885 119.378C122.294 119.162 122.615 118.872 122.848 118.509C123.081 118.145 123.197 117.733 123.197 117.273V115.884C123.084 115.957 122.928 116.026 122.729 116.088C122.535 116.145 122.317 116.199 122.072 116.25C121.828 116.295 121.584 116.338 121.339 116.378C121.095 116.412 120.874 116.443 120.675 116.472C120.249 116.534 119.876 116.634 119.558 116.77C119.24 116.906 118.993 117.091 118.817 117.324C118.641 117.551 118.553 117.835 118.553 118.176C118.553 118.671 118.732 119.048 119.089 119.31C119.453 119.565 119.913 119.693 120.47 119.693ZM129.619 121.952V108.861H133.25V121.952H129.619ZM131.443 107.173C130.903 107.173 130.44 106.994 130.054 106.636C129.673 106.273 129.483 105.838 129.483 105.332C129.483 104.832 129.673 104.403 130.054 104.045C130.44 103.682 130.903 103.5 131.443 103.5C131.983 103.5 132.443 103.682 132.824 104.045C133.21 104.403 133.403 104.832 133.403 105.332C133.403 105.838 133.21 106.273 132.824 106.636C132.443 106.994 131.983 107.173 131.443 107.173ZM139.789 104.497V121.952H136.158V104.497H139.789ZM144.939 126.861C144.479 126.861 144.047 126.824 143.643 126.75C143.246 126.682 142.916 126.594 142.655 126.486L143.473 123.776C143.899 123.906 144.283 123.977 144.624 123.989C144.97 124 145.268 123.921 145.518 123.75C145.774 123.58 145.982 123.29 146.141 122.881L146.354 122.327L141.658 108.861H145.476L148.186 118.474H148.322L151.058 108.861H154.902L149.814 123.367C149.57 124.071 149.237 124.685 148.817 125.207C148.402 125.736 147.876 126.142 147.24 126.426C146.604 126.716 145.837 126.861 144.939 126.861Z" fill="url(#paint1_linear_631_219)"/>
</g>
<defs>
<linearGradient id="paint0_linear_631_219" x1="44.5" y1="5" x2="102.895" y2="69.5418" gradientUnits="userSpaceOnUse">
<stop stop-color="#1A3C96"/>
<stop offset="1" stop-color="#8AAAFF"/>
</linearGradient>
<linearGradient id="paint1_linear_631_219" x1="1.79553" y1="99.5164" x2="191.12" y2="122.249" gradientUnits="userSpaceOnUse">
<stop stop-color="#A1BAFF"/>
<stop offset="1" stop-color="#1B3D96"/>
</linearGradient>
<clipPath id="clip0_631_219">
<rect width="77" height="79" fill="white" transform="translate(39.5)"/>
</clipPath>
<clipPath id="clip1_631_219">
<rect width="156" height="24" fill="white" transform="translate(0 101)"/>
</clipPath>
</defs>
</svg>
