<svg width="24" height="22" viewBox="0 0 24 22" fill="none" xmlns="http://www.w3.org/2000/svg">
<path d="M12 22L10.26 20.4414C8.24 18.6231 6.57 17.0545 5.25 15.7357C3.93 14.4169 2.88 13.2328 2.1 12.1833C1.32 11.1339 0.7752 10.17 0.4656 9.29157C0.156 8.41317 0.0008 7.51398 0 6.59402C0 4.71573 0.63 3.14715 1.89 1.8883C3.15 0.629443 4.72 1.52588e-05 6.6 1.52588e-05C7.64 1.52588e-05 8.63 0.219815 9.57 0.659416C10.51 1.09902 11.32 1.71845 12 2.51773C12.68 1.71845 13.49 1.09902 14.43 0.659416C15.37 0.219815 16.36 1.52588e-05 17.4 1.52588e-05C19.28 1.52588e-05 20.85 0.629443 22.11 1.8883C23.37 3.14715 24 4.71573 24 6.59402C24 7.51318 23.8452 8.41237 23.5356 9.29157C23.226 10.1708 22.6808 11.1347 21.9 12.1833C21.1192 13.232 20.0692 14.4161 18.75 15.7357C17.4308 17.0553 15.7608 18.6239 13.74 20.4414L12 22Z" fill="white"/>
</svg>
