<svg width="48" height="48" viewBox="0 0 48 48" fill="none" xmlns="http://www.w3.org/2000/svg">
<rect width="48" height="48" rx="24" fill="#1A3C96"/>
<path d="M24 35L22.26 33.4414C20.24 31.6231 18.57 30.0545 17.25 28.7357C15.93 27.4169 14.88 26.2328 14.1 25.1833C13.32 24.1339 12.7752 23.17 12.4656 22.2916C12.156 21.4132 12.0008 20.514 12 19.594C12 17.7157 12.63 16.1471 13.89 14.8883C15.15 13.6294 16.72 13 18.6 13C19.64 13 20.63 13.2198 21.57 13.6594C22.51 14.099 23.32 14.7184 24 15.5177C24.68 14.7184 25.49 14.099 26.43 13.6594C27.37 13.2198 28.36 13 29.4 13C31.28 13 32.85 13.6294 34.11 14.8883C35.37 16.1471 36 17.7157 36 19.594C36 20.5132 35.8452 21.4124 35.5356 22.2916C35.226 23.1708 34.6808 24.1347 33.9 25.1833C33.1192 26.232 32.0692 27.4161 30.75 28.7357C29.4308 30.0553 27.7608 31.6239 25.74 33.4414L24 35Z" fill="#F40303"/>
</svg>
