<svg width="156" height="24" viewBox="0 0 156 24" fill="none" xmlns="http://www.w3.org/2000/svg">
<path d="M0.852983 19V1.54545H7.73935C9.06321 1.54545 10.1911 1.7983 11.1229 2.30398C12.0547 2.80398 12.7649 3.5 13.2536 4.39204C13.7479 5.27841 13.995 6.30114 13.995 7.46023C13.995 8.61932 13.745 9.64205 13.245 10.5284C12.745 11.4148 12.0206 12.1051 11.0717 12.5994C10.1286 13.0937 8.98651 13.3409 7.6456 13.3409H3.25639V10.3835H7.04901C7.75923 10.3835 8.34446 10.2614 8.80469 10.017C9.2706 9.76705 9.61719 9.4233 9.84446 8.9858C10.0774 8.54261 10.1939 8.03409 10.1939 7.46023C10.1939 6.88068 10.0774 6.375 9.84446 5.94318C9.61719 5.50568 9.2706 5.16761 8.80469 4.92898C8.33878 4.68466 7.74787 4.5625 7.03196 4.5625H4.54332V19H0.852983ZM19.7053 19.2472C18.87 19.2472 18.1257 19.1023 17.4723 18.8125C16.8189 18.517 16.3018 18.0824 15.9212 17.5085C15.5462 16.929 15.3587 16.2074 15.3587 15.3438C15.3587 14.6165 15.4922 14.0057 15.7592 13.5114C16.0263 13.017 16.3899 12.6193 16.8501 12.3182C17.3104 12.017 17.8331 11.7898 18.4183 11.6364C19.0092 11.483 19.6286 11.375 20.2763 11.3125C21.0376 11.233 21.6513 11.1591 22.1172 11.0909C22.5831 11.017 22.9212 10.9091 23.1314 10.767C23.3416 10.625 23.4467 10.4148 23.4467 10.1364V10.0852C23.4467 9.54545 23.2763 9.12784 22.9354 8.83239C22.6001 8.53693 22.1229 8.3892 21.5036 8.3892C20.8501 8.3892 20.3303 8.53409 19.9439 8.82386C19.5575 9.10795 19.3018 9.46591 19.1768 9.89773L15.8189 9.625C15.9893 8.82955 16.3246 8.14205 16.8246 7.5625C17.3246 6.97727 17.9695 6.52841 18.7592 6.21591C19.5547 5.89773 20.4751 5.73864 21.5206 5.73864C22.2479 5.73864 22.9439 5.82386 23.6087 5.99432C24.2791 6.16477 24.8729 6.42898 25.3899 6.78693C25.9126 7.14489 26.3246 7.60511 26.6257 8.16761C26.9268 8.72443 27.0774 9.39205 27.0774 10.1705V19H23.6342V17.1847H23.532C23.3217 17.5938 23.0405 17.9545 22.6882 18.267C22.3359 18.5739 21.9126 18.8153 21.4183 18.9915C20.924 19.1619 20.353 19.2472 19.7053 19.2472ZM20.745 16.7415C21.2791 16.7415 21.7507 16.6364 22.1598 16.4261C22.5689 16.2102 22.8899 15.9205 23.1229 15.5568C23.3558 15.1932 23.4723 14.7812 23.4723 14.321V12.9318C23.3587 13.0057 23.2024 13.0739 23.0036 13.1364C22.8104 13.1932 22.5916 13.2472 22.3473 13.2983C22.103 13.3437 21.8587 13.3864 21.6143 13.4261C21.37 13.4602 21.1484 13.4915 20.9496 13.5199C20.5234 13.5824 20.1513 13.6818 19.8331 13.8182C19.5149 13.9545 19.2678 14.1392 19.0916 14.3722C18.9155 14.5994 18.8274 14.8835 18.8274 15.2244C18.8274 15.7188 19.0064 16.0966 19.3643 16.358C19.728 16.6136 20.1882 16.7415 20.745 16.7415ZM40.7862 9.64205L37.4624 9.84659C37.4055 9.5625 37.2834 9.30682 37.0959 9.07955C36.9084 8.84659 36.6612 8.66193 36.3544 8.52557C36.0533 8.38352 35.6925 8.3125 35.272 8.3125C34.7095 8.3125 34.2351 8.43182 33.8487 8.67045C33.4624 8.90341 33.2692 9.21591 33.2692 9.60795C33.2692 9.92045 33.3942 10.1847 33.6442 10.4006C33.8942 10.6165 34.3232 10.7898 34.9311 10.9205L37.3004 11.3977C38.5732 11.6591 39.522 12.0795 40.147 12.6591C40.772 13.2386 41.0845 14 41.0845 14.9432C41.0845 15.8011 40.8317 16.554 40.326 17.2017C39.826 17.8494 39.1385 18.3551 38.2635 18.7188C37.3942 19.0767 36.3913 19.2557 35.255 19.2557C33.522 19.2557 32.1413 18.8949 31.1129 18.1733C30.0902 17.446 29.4908 16.4574 29.3146 15.2074L32.8857 15.0199C32.9936 15.5483 33.255 15.9517 33.6697 16.2301C34.0845 16.5028 34.6158 16.6392 35.2635 16.6392C35.8999 16.6392 36.4112 16.517 36.7976 16.2727C37.1896 16.0227 37.3885 15.7017 37.3942 15.3097C37.3885 14.9801 37.2493 14.7102 36.9766 14.5C36.7038 14.2841 36.2834 14.1193 35.7152 14.0057L33.4482 13.554C32.1697 13.2983 31.218 12.8551 30.593 12.2244C29.9737 11.5937 29.6641 10.7898 29.6641 9.8125C29.6641 8.97159 29.8913 8.24716 30.3459 7.6392C30.8061 7.03125 31.451 6.5625 32.2805 6.23295C33.1158 5.90341 34.093 5.73864 35.2124 5.73864C36.8658 5.73864 38.1669 6.08807 39.1158 6.78693C40.0703 7.4858 40.6271 8.4375 40.7862 9.64205ZM54.2628 9.64205L50.9389 9.84659C50.8821 9.5625 50.7599 9.30682 50.5724 9.07955C50.3849 8.84659 50.1378 8.66193 49.831 8.52557C49.5298 8.38352 49.169 8.3125 48.7486 8.3125C48.1861 8.3125 47.7116 8.43182 47.3253 8.67045C46.9389 8.90341 46.7457 9.21591 46.7457 9.60795C46.7457 9.92045 46.8707 10.1847 47.1207 10.4006C47.3707 10.6165 47.7997 10.7898 48.4077 10.9205L50.777 11.3977C52.0497 11.6591 52.9986 12.0795 53.6236 12.6591C54.2486 13.2386 54.5611 14 54.5611 14.9432C54.5611 15.8011 54.3082 16.554 53.8026 17.2017C53.3026 17.8494 52.6151 18.3551 51.7401 18.7188C50.8707 19.0767 49.8679 19.2557 48.7315 19.2557C46.9986 19.2557 45.6179 18.8949 44.5895 18.1733C43.5668 17.446 42.9673 16.4574 42.7912 15.2074L46.3622 15.0199C46.4702 15.5483 46.7315 15.9517 47.1463 16.2301C47.5611 16.5028 48.0923 16.6392 48.7401 16.6392C49.3764 16.6392 49.8878 16.517 50.2741 16.2727C50.6662 16.0227 50.8651 15.7017 50.8707 15.3097C50.8651 14.9801 50.7259 14.7102 50.4531 14.5C50.1804 14.2841 49.7599 14.1193 49.1918 14.0057L46.9247 13.554C45.6463 13.2983 44.6946 12.8551 44.0696 12.2244C43.4503 11.5937 43.1406 10.7898 43.1406 9.8125C43.1406 8.97159 43.3679 8.24716 43.8224 7.6392C44.2827 7.03125 44.9276 6.5625 45.7571 6.23295C46.5923 5.90341 47.5696 5.73864 48.6889 5.73864C50.3423 5.73864 51.6435 6.08807 52.5923 6.78693C53.5469 7.4858 54.1037 8.4375 54.2628 9.64205ZM56.8473 19V5.90909H60.478V19H56.8473ZM58.6712 4.22159C58.1314 4.22159 57.6683 4.04261 57.282 3.68466C56.9013 3.32102 56.7109 2.88636 56.7109 2.38068C56.7109 1.88068 56.9013 1.4517 57.282 1.09375C57.6683 0.730113 58.1314 0.548295 58.6712 0.548295C59.2109 0.548295 59.6712 0.730113 60.0518 1.09375C60.4382 1.4517 60.6314 1.88068 60.6314 2.38068C60.6314 2.88636 60.4382 3.32102 60.0518 3.68466C59.6712 4.04261 59.2109 4.22159 58.6712 4.22159ZM69.3011 19.2557C67.9773 19.2557 66.8324 18.9744 65.8665 18.4119C64.9063 17.8437 64.1648 17.054 63.642 16.0426C63.1193 15.0256 62.858 13.8466 62.858 12.5057C62.858 11.1534 63.1193 9.97159 63.642 8.96023C64.1648 7.94318 64.9063 7.15341 65.8665 6.59091C66.8324 6.02273 67.9773 5.73864 69.3011 5.73864C70.625 5.73864 71.767 6.02273 72.7273 6.59091C73.6932 7.15341 74.4375 7.94318 74.9602 8.96023C75.483 9.97159 75.7443 11.1534 75.7443 12.5057C75.7443 13.8466 75.483 15.0256 74.9602 16.0426C74.4375 17.054 73.6932 17.8437 72.7273 18.4119C71.767 18.9744 70.625 19.2557 69.3011 19.2557ZM69.3182 16.4432C69.9205 16.4432 70.4233 16.2727 70.8267 15.9318C71.2301 15.5852 71.5341 15.1136 71.7386 14.517C71.9489 13.9205 72.054 13.2415 72.054 12.4801C72.054 11.7188 71.9489 11.0398 71.7386 10.4432C71.5341 9.84659 71.2301 9.375 70.8267 9.02841C70.4233 8.68182 69.9205 8.50852 69.3182 8.50852C68.7102 8.50852 68.1989 8.68182 67.7841 9.02841C67.375 9.375 67.0653 9.84659 66.8551 10.4432C66.6506 11.0398 66.5483 11.7188 66.5483 12.4801C66.5483 13.2415 66.6506 13.9205 66.8551 14.517C67.0653 15.1136 67.375 15.5852 67.7841 15.9318C68.1989 16.2727 68.7102 16.4432 69.3182 16.4432ZM81.7358 11.4318V19H78.1051V5.90909H81.5653V8.21875H81.7188C82.0085 7.45739 82.4943 6.85511 83.1761 6.41193C83.858 5.96307 84.6847 5.73864 85.6562 5.73864C86.5653 5.73864 87.358 5.9375 88.0341 6.33523C88.7102 6.73295 89.2358 7.30114 89.6108 8.03977C89.9858 8.77273 90.1733 9.64773 90.1733 10.6648V19H86.5426V11.3125C86.5483 10.5114 86.3438 9.88636 85.929 9.4375C85.5142 8.98295 84.9432 8.75568 84.2159 8.75568C83.7273 8.75568 83.2955 8.8608 82.9205 9.07102C82.5511 9.28125 82.2614 9.58807 82.0511 9.99148C81.8466 10.3892 81.7415 10.8693 81.7358 11.4318ZM104.845 19H98.6577V1.54545H104.896C106.652 1.54545 108.163 1.89489 109.43 2.59375C110.697 3.28693 111.672 4.28409 112.354 5.58523C113.041 6.88636 113.385 8.44318 113.385 10.2557C113.385 12.0739 113.041 13.6364 112.354 14.9432C111.672 16.25 110.692 17.2528 109.413 17.9517C108.141 18.6506 106.618 19 104.845 19ZM102.348 15.8381H104.692C105.783 15.8381 106.7 15.6449 107.445 15.2585C108.195 14.8665 108.757 14.2614 109.132 13.4432C109.513 12.6193 109.703 11.5568 109.703 10.2557C109.703 8.96591 109.513 7.91193 109.132 7.09375C108.757 6.27557 108.197 5.6733 107.453 5.28693C106.709 4.90057 105.791 4.70739 104.7 4.70739H102.348V15.8381ZM119.783 19.2472C118.948 19.2472 118.204 19.1023 117.55 18.8125C116.897 18.517 116.38 18.0824 115.999 17.5085C115.624 16.929 115.437 16.2074 115.437 15.3438C115.437 14.6165 115.57 14.0057 115.837 13.5114C116.104 13.017 116.468 12.6193 116.928 12.3182C117.388 12.017 117.911 11.7898 118.496 11.6364C119.087 11.483 119.707 11.375 120.354 11.3125C121.116 11.233 121.729 11.1591 122.195 11.0909C122.661 11.017 122.999 10.9091 123.21 10.767C123.42 10.625 123.525 10.4148 123.525 10.1364V10.0852C123.525 9.54545 123.354 9.12784 123.013 8.83239C122.678 8.53693 122.201 8.3892 121.582 8.3892C120.928 8.3892 120.408 8.53409 120.022 8.82386C119.636 9.10795 119.38 9.46591 119.255 9.89773L115.897 9.625C116.067 8.82955 116.403 8.14205 116.903 7.5625C117.403 6.97727 118.048 6.52841 118.837 6.21591C119.633 5.89773 120.553 5.73864 121.599 5.73864C122.326 5.73864 123.022 5.82386 123.687 5.99432C124.357 6.16477 124.951 6.42898 125.468 6.78693C125.991 7.14489 126.403 7.60511 126.704 8.16761C127.005 8.72443 127.156 9.39205 127.156 10.1705V19H123.712V17.1847H123.61C123.4 17.5938 123.119 17.9545 122.766 18.267C122.414 18.5739 121.991 18.8153 121.496 18.9915C121.002 19.1619 120.431 19.2472 119.783 19.2472ZM120.823 16.7415C121.357 16.7415 121.829 16.6364 122.238 16.4261C122.647 16.2102 122.968 15.9205 123.201 15.5568C123.434 15.1932 123.55 14.7812 123.55 14.321V12.9318C123.437 13.0057 123.281 13.0739 123.082 13.1364C122.888 13.1932 122.67 13.2472 122.425 13.2983C122.181 13.3437 121.937 13.3864 121.692 13.4261C121.448 13.4602 121.227 13.4915 121.028 13.5199C120.602 13.5824 120.229 13.6818 119.911 13.8182C119.593 13.9545 119.346 14.1392 119.17 14.3722C118.994 14.5994 118.906 14.8835 118.906 15.2244C118.906 15.7188 119.085 16.0966 119.442 16.358C119.806 16.6136 120.266 16.7415 120.823 16.7415ZM129.972 19V5.90909H133.603V19H129.972ZM131.796 4.22159C131.256 4.22159 130.793 4.04261 130.407 3.68466C130.026 3.32102 129.836 2.88636 129.836 2.38068C129.836 1.88068 130.026 1.4517 130.407 1.09375C130.793 0.730113 131.256 0.548295 131.796 0.548295C132.336 0.548295 132.796 0.730113 133.177 1.09375C133.563 1.4517 133.756 1.88068 133.756 2.38068C133.756 2.88636 133.563 3.32102 133.177 3.68466C132.796 4.04261 132.336 4.22159 131.796 4.22159ZM140.142 1.54545V19H136.511V1.54545H140.142ZM145.292 23.9091C144.832 23.9091 144.4 23.8722 143.996 23.7983C143.599 23.7301 143.269 23.642 143.008 23.5341L143.826 20.8239C144.252 20.9545 144.636 21.0256 144.977 21.0369C145.323 21.0483 145.621 20.9688 145.871 20.7983C146.127 20.6278 146.335 20.3381 146.494 19.929L146.707 19.375L142.011 5.90909H145.829L148.539 15.5227H148.675L151.411 5.90909H155.255L150.167 20.4148C149.923 21.1193 149.59 21.733 149.17 22.2557C148.755 22.7841 148.229 23.1903 147.593 23.4744C146.957 23.7642 146.19 23.9091 145.292 23.9091Z" fill="url(#paint0_linear_199_267)"/>
<defs>
<linearGradient id="paint0_linear_199_267" x1="2.14851" y1="-3.43533" x2="191.473" y2="19.2969" gradientUnits="userSpaceOnUse">
<stop stop-color="#A1BAFF"/>
<stop offset="1" stop-color="#1B3D96"/>
</linearGradient>
</defs>
</svg>
