<svg width="140" height="140" viewBox="0 0 140 140" fill="none" xmlns="http://www.w3.org/2000/svg">
<path d="M90.4166 64.1667C92.8472 64.1667 94.9132 63.316 96.6145 61.6146C98.3159 59.9132 99.1666 57.8472 99.1666 55.4167C99.1666 52.9861 98.3159 50.9201 96.6145 49.2187C94.9132 47.5173 92.8472 46.6667 90.4166 46.6667C87.9861 46.6667 85.9201 47.5173 84.2187 49.2187C82.5173 50.9201 81.6666 52.9861 81.6666 55.4167C81.6666 57.8472 82.5173 59.9132 84.2187 61.6146C85.9201 63.316 87.9861 64.1667 90.4166 64.1667ZM49.5833 64.1667C52.0138 64.1667 54.0798 63.316 55.7812 61.6146C57.4826 59.9132 58.3333 57.8472 58.3333 55.4167C58.3333 52.9861 57.4826 50.9201 55.7812 49.2187C54.0798 47.5173 52.0138 46.6667 49.5833 46.6667C47.1527 46.6667 45.0868 47.5173 43.3854 49.2187C41.684 50.9201 40.8333 52.9861 40.8333 55.4167C40.8333 57.8472 41.684 59.9132 43.3854 61.6146C45.0868 63.316 47.1527 64.1667 49.5833 64.1667ZM70 78.75C63.3888 78.75 57.3854 80.6215 51.9895 84.3646C46.5937 88.1076 42.6805 93.0417 40.25 99.1667H49.875C52.0138 95.5694 54.8576 92.7257 58.4062 90.6354C61.9548 88.5451 65.8194 87.5 70 87.5C74.1805 87.5 78.0451 88.5451 81.5937 90.6354C85.1423 92.7257 87.9861 95.5694 90.125 99.1667H99.75C97.3194 93.0417 93.4062 88.1076 88.0104 84.3646C82.6145 80.6215 76.6111 78.75 70 78.75ZM70 128.333C61.9305 128.333 54.3472 126.802 47.25 123.74C40.1527 120.677 33.9791 116.521 28.7291 111.271C23.4791 106.021 19.3229 99.8472 16.2604 92.75C13.1979 85.6528 11.6666 78.0694 11.6666 70C11.6666 61.9305 13.1979 54.3472 16.2604 47.25C19.3229 40.1528 23.4791 33.9792 28.7291 28.7292C33.9791 23.4792 40.1527 19.3229 47.25 16.2604C54.3472 13.1979 61.9305 11.6667 70 11.6667C78.0694 11.6667 85.6527 13.1979 92.75 16.2604C99.8472 19.3229 106.021 23.4792 111.271 28.7292C116.521 33.9792 120.677 40.1528 123.74 47.25C126.802 54.3472 128.333 61.9305 128.333 70C128.333 78.0694 126.802 85.6528 123.74 92.75C120.677 99.8472 116.521 106.021 111.271 111.271C106.021 116.521 99.8472 120.677 92.75 123.74C85.6527 126.802 78.0694 128.333 70 128.333ZM70 116.667C83.0277 116.667 94.0625 112.146 103.104 103.104C112.146 94.0625 116.667 83.0278 116.667 70C116.667 56.9722 112.146 45.9375 103.104 36.8958C94.0625 27.8542 83.0277 23.3333 70 23.3333C56.9722 23.3333 45.9375 27.8542 36.8958 36.8958C27.8541 45.9375 23.3333 56.9722 23.3333 70C23.3333 83.0278 27.8541 94.0625 36.8958 103.104C45.9375 112.146 56.9722 116.667 70 116.667Z" fill="#5F6368"/>
</svg>
